# xmcd
#
# Track frame offsets:
#	150
#	15594
#	32358
#	46209
#
# Disc length: 810 seconds
#
# Revision: 1
# Processed by: cddbd v1.5.2PL0 Copyright (c) Steve Scherf et al.
# Submitted via: audiograbber 1.83.01
#
DISCID=20032804
DTITLE=Mark Luckenbill - Mark Luckenbill
DYEAR=2016
DGENRE=Country
TTITLE0=Can't Get Better Than This
TTITLE1=Other Side of Me
TTITLE2=Thinkin' bout Trucks
TTITLE3=What We're All About
EXTD=
EXTT0=
EXTT1=
EXTT2=
EXTT3=
PLAYORDER=
